<?xml version="1.0" encoding="iso-8859-1"?>
<!-- Generator: Adobe Illustrator 17.1.0, SVG Export Plug-In . SVG Version: 6.00 Build 0)  -->
<!DOCTYPE svg PUBLIC "-//W3C//DTD SVG 1.1//EN" "http://www.w3.org/Graphics/SVG/1.1/DTD/svg11.dtd">
<svg version="1.1" id="Capa_1" xmlns="http://www.w3.org/2000/svg" xmlns:xlink="http://www.w3.org/1999/xlink" x="0px" y="0px"
	 viewBox="0 0 459.994 459.994" style="enable-background:new 0 0 459.994 459.994;" xml:space="preserve">
<g>
	<path d="M440.745,444.994H389.77v-15.368c0-35.193-9.385-62.355-27.894-80.732c-23.599-23.429-53.265-23.485-54.407-23.474h-37.572
		v-22.734c0-0.396-0.04-0.783-0.1-1.163c24.058-9.94,39.262-26.521,48.52-40.897c14.433-22.41,17.689-43.977,17.821-44.883
		c0.051-0.357,0.077-0.716,0.077-1.077v-1.606c5.267-1.299,9.85-4.017,13.489-8.046c10.618-11.757,10.002-30.306,9.243-37.734
		c-0.576-5.655-3.135-10.4-7.397-13.723c-3.045-2.373-6.612-3.737-10.054-4.498V74.917c0-24.675-10.2-41.169-31.185-50.424
		c-8.51-3.752-6.268-11.918-5.402-14.27c1.292-3.315,0.076-7.082-2.909-9.018c-2.987-1.934-6.921-1.506-9.42,1.028
		c-11.882,12.053-24.46,11.733-47.278,11.157c-15.901-0.403-35.695-0.903-61.753,2.825c-35.786,5.119-51.659,27.232-58.673,44.881
		c-7.027,17.684-6.599,34.197-6.501,36.481v49.109c0,0.797,0.127,1.564,0.357,2.285c-3.568,0.741-7.3,2.116-10.467,4.584
		c-4.263,3.322-6.822,8.067-7.399,13.723c-0.757,7.429-1.373,25.978,9.245,37.734c3.679,4.074,8.326,6.804,13.667,8.085v1.567
		c0,0.36,0.026,0.72,0.078,1.076c0.131,0.907,3.387,22.474,17.82,44.884c9.258,14.375,24.462,30.956,48.519,40.896
		c-0.059,0.38-0.099,0.767-0.099,1.164v22.734h-37.517c-1.244,0.008-30.87,0.051-54.46,23.474
		c-18.509,18.377-27.894,45.54-27.894,80.732v15.368H19.249c-4.142,0-7.5,3.358-7.5,7.5c0,4.142,3.358,7.5,7.5,7.5h421.497
		c4.143,0,7.5-3.358,7.5-7.5C448.245,448.352,444.888,444.994,440.745,444.994z M244.853,145.195
		c-13.872-3.585-25.563-1.545-32.406,0.511c-3.176-19.701-20.294-34.798-40.877-34.798c-5.091,0-9.967,0.929-14.476,2.617v-13.502
		c6.93-3.35,27.424-10.765,73.021-10.765c45.597,0,66.092,7.415,73.022,10.765v14.776c-5.319-2.491-11.248-3.892-17.5-3.892
		C265.233,110.908,248.241,125.745,244.853,145.195z M171.571,125.908c14.563,0,26.411,11.848,26.411,26.411
		c0,14.563-11.848,26.411-26.411,26.411c-14.563,0-26.41-11.848-26.41-26.411C145.161,137.756,157.008,125.908,171.571,125.908z
		 M285.638,125.908c14.564,0,26.411,11.848,26.411,26.411c0,14.563-11.848,26.411-26.411,26.411
		c-14.563,0-26.41-11.848-26.41-26.411C259.228,137.756,271.075,125.908,285.638,125.908z M344.026,168.801
		c0.892,8.739-0.072,20.201-5.453,26.158c-0.721,0.798-1.508,1.456-2.357,2.008v-33.595c2.324,0.268,4.651,0.865,6.131,2.028
		C343.062,165.964,343.823,166.808,344.026,168.801z M185.674,31.064c24.813-3.55,43.91-3.065,59.249-2.678
		c17.997,0.455,32.299,0.818,45.185-5.784c1.779,6.164,6.027,12.033,14.152,15.616c15.587,6.875,22.237,17.85,22.237,36.699v46.109
		l-8.359-7.867V95.718c0-2.25-1.01-4.38-2.751-5.805c-1.959-1.602-20.992-15.655-85.271-15.655
		c-64.278,0-83.312,14.053-85.271,15.655c-1.741,1.425-2.751,3.556-2.751,5.805v17.441l-8.719,8.204V97.4
		c0-0.129-0.004-0.276-0.011-0.405C133.243,94.626,130.994,38.886,185.674,31.064z M121.243,194.959
		c-5.38-5.957-6.345-17.419-5.454-26.158c0.203-1.993,0.963-2.837,1.68-3.401c1.517-1.193,3.926-1.794,6.309-2.051v33.729
		C122.861,196.506,122.014,195.812,121.243,194.959z M154.587,252.966c-11.735-18.011-15.267-35.842-15.808-38.914v-36.487
		c7.579,9.821,19.455,16.165,32.791,16.165c19.522,0,35.921-13.583,40.271-31.791c0.318-0.112,0.633-0.241,0.941-0.4
		c0.48-0.238,9.393-4.54,22.148-2.998v28.504c0,1.654-1.346,3-3,3h-3.868c-1.654,0-3-1.346-3-3c0-4.142-3.358-7.5-7.5-7.5
		s-7.5,3.358-7.5,7.5c0,9.925,8.075,18,18,18h3.868c9.665,0,17.554-7.664,17.961-17.231c0.025-0.253,0.039-0.509,0.039-0.769
		v-13.789c7.203,12.238,20.507,20.475,35.706,20.475c15.107,0,28.345-8.135,35.578-20.251v40.571
		c-0.548,3.109-4.085,20.922-15.808,38.915c-16.81,25.798-41.947,39.985-74.714,42.169H229.3
		C196.533,292.951,171.395,278.764,154.587,252.966z M228.569,310.119c0.162,0.01,0.323,0.016,0.485,0.016h1.886
		c0.162,0,0.324-0.005,0.485-0.016c8.5-0.551,16.299-1.832,23.473-3.668v26.469c0,3.043,1.816,5.658,4.421,6.833l-31.175,32.119
		l-28.085-31.875c2.931-1.02,5.038-3.799,5.038-7.078v-26.469C212.27,308.287,220.07,309.568,228.569,310.119z M85.225,429.626
		c0-88.177,64.527-89.206,67.301-89.206h27.914l41.811,47.453c1.382,1.569,3.356,2.489,5.447,2.54
		c0.061,0.001,0.121,0.002,0.181,0.002c2.025,0,3.967-0.819,5.381-2.276l46.316-47.718h27.948c0.002,0,0.005,0,0.01,0
		c0.593,0,24.707,0.187,43.774,19.118c15.569,15.457,23.463,39.039,23.463,70.088v15.368H192.168v-51.167c0-4.142-3.358-7.5-7.5-7.5
		h-66.673c-4.142,0-7.5,3.358-7.5,7.5v51.167H85.225V429.626z M177.168,409.666h-51.673v-8.34h51.673V409.666z M125.495,424.666
		h51.673v20.328h-51.673V424.666z"/>
	<circle cx="176.76" cy="152.317" r="8.951"/>
	<circle cx="283.235" cy="152.317" r="8.951"/>
	<path d="M207.919,241.832c-8.847-3.04-13.396-6.915-13.57-7.066c-3.062-2.748-7.773-2.518-10.551,0.529
		c-2.791,3.061-2.572,7.805,0.488,10.596c0.663,0.604,6.824,6.027,18.758,10.128c0.808,0.278,1.629,0.409,2.438,0.409
		c3.114,0,6.024-1.955,7.092-5.064C213.921,247.445,211.836,243.178,207.919,241.832z"/>
	<path d="M310.299,430.917c0,0,2.959,1.158,2.959-6.436c0-5.77,1.708-7.079,2.925-7.376c1.216,0.297,2.924,1.606,2.924,7.376
		c0,7.594,2.959,6.436,2.959,6.436s10.04-0.258,10.04-19.307c0,0,3.346-7.98,3.346-14.287c0-6.307-4.246-10.683-8.752-10.683
		c-2.603,0-6.54,2.273-10.517,3.824c-3.977-1.551-7.914-3.824-10.517-3.824c-4.506,0-8.752,4.376-8.752,10.683
		c0,6.307,3.346,14.287,3.346,14.287C300.259,430.659,310.299,430.917,310.299,430.917z"/>
</g>
<g>
</g>
<g>
</g>
<g>
</g>
<g>
</g>
<g>
</g>
<g>
</g>
<g>
</g>
<g>
</g>
<g>
</g>
<g>
</g>
<g>
</g>
<g>
</g>
<g>
</g>
<g>
</g>
<g>
</g>
</svg>
